<?xml version="1.0" encoding="utf-8"?>
<!-- Generator: Adobe Illustrator 20.1.0, SVG Export Plug-In . SVG Version: 6.00 Build 0)  -->
<svg version="1.1" id="logo" xmlns="http://www.w3.org/2000/svg" xmlns:xlink="http://www.w3.org/1999/xlink" x="0px" y="0px"
	 viewBox="0 0 260 228" style="enable-background:new 0 0 260 228;" xml:space="preserve">
<style type="text/css">
	.st0{fill:#163EF6;}
	.st1{fill:#FFFFFF;}
	.st2{fill:#163EF5;}
	.st3{fill:#DF2041;}
</style>
<path id="background" class="st0" d="M0,114V0h130h130v114v114H130H0V114z"/>
<g id="Letters">
	<g id="D">
		<path id="background_1_" class="st1" d="M92.9,181.7c27.4-5.7,47.7-25.6,54.8-53.5c2.6-10.2,2.6-33,0-43
			c-7-27-24.9-44.6-52.5-51.6c-8.6-2.2-14.6-2.5-50.7-2.5H3.6v76.3v76.3h40.2C73.8,183.6,86,183.1,92.9,181.7z"/>
		<path id="interior_1_" class="st0" d="M52.2,106.5V71.2H63c20.7,0.1,30.1,4.4,35.9,16.7c4.6,12.6,4.5,25.1-0.4,37.5
			c-2.7,5.3-5.6,8.9-9.5,11.6c-9.2,6.3-25.7,5.7-36.8,4.8V106.5z"/>
		<path id="hole" class="st2" d="M10.4,107.6V37.8h36.9c32.6,0,38.2,0.3,47.1,2.6c31.6,8.1,49,31.6,49,66c0,22.8-6.8,40-20.9,53.1
			c-16.6,15.4-27,17.9-75.9,17.9H10.4V107.6z M88.1,145.5c8.1-3.8,15.4-12,18.4-20.9c2.7-8,3-26.2,0.7-34.3
			c-2.5-8.5-9.1-16.2-17.7-20.6c-7.2-3.7-8.7-3.9-25.7-4.3L45.6,65v41.9v41.9h18C79.7,148.7,82.1,148.3,88.1,145.5z"/>
	</g>
	<g id="S">
		<path id="background_3_" class="st1" d="M214,184.7c24.9-6.4,39.8-21.9,41.6-43.9c1.2-14.7-4.2-28.7-14.3-37.7
			c-11.1-9.8-24.3-14.6-48.1-18c-16.6-2.3-20.6-4.2-20.6-9.6c0-2.7,0.9-4,3.5-5.2c9.8-4.4,27.1-2.7,39.4,3.9
			c3.9,2.1,7.6,3.8,8.1,3.8c0.7,0,6.4-6.8,12.9-15.1l11.9-15.3l-6.3-4.4c-8.6-6.1-18.3-10.4-28.7-12.9c-10.8-2.6-34.6-2.9-45.4-0.7
			c-9.3,2-24.4,9.1-30.4,14.3l-4.3,3.7l7.7,7.7c13,13.2,18.9,29.9,18.4,53.2l-0.3,13.2l7,1.6c3.9,0.9,12.3,2.2,18.8,3
			c6.4,0.8,14.2,2.6,17.3,3.9c4.8,2.4,5,3.1,5.2,6.6c-0.3,3.1-1.4,4.7-5,6.5c-8.7,4.8-31.9,2.3-44.3-4.6c-3.1-1.8-3.3-1.7-8.1,7
			c-2.7,5-7.9,11.5-12.4,16.9c-3.5,4-6.1,8.2-6.1,8.9c0.7,0.4,4,2.7,7.3,5.1c13,9.1,28.6,12.5,52.5,11.2
			C198.5,187.5,208.7,186.2,214,184.7z"/>
		<path id="interior_2_" class="st0" d="M170.4,181c-9.8-1.2-24.1-6.3-27-9.8c-1-1.2,0.1-3.4,3.8-7.8c2.9-3.5,6.5-8.9,8.2-12
			c2.1-4,3.5-5.3,5-4.8c8.7,3.8,14.1,5,25.2,5.5c19.9,0.9,29.6-4.2,29.6-15.6c0-6.3-4.8-11.5-12.6-13.8c-3.7-1-31-5.3-35.2-5.5
			c-0.3,0-0.4-5.5-0.4-12.1c0-20.5-6.8-40.7-17.5-52.3c-4.4-4.7-4.6-5.2-2.5-6.8c9.3-7,25.8-11.3,42.8-11.3c16.7,0,26.1,2,39.5,8.3
			l10.8,5.2l-4,5.5c-2.2,3-5.9,7.8-8.3,10.6l-4.3,5.2l-6.8-3c-14.7-6.3-35.9-6.6-45-0.8c-5,3.3-6.6,9.9-4,15.5
			c2.9,6,8,8.2,24.9,10.6c31,4.3,45.9,12,53.6,27.8c3.1,6.3,3.7,9,3.5,17.9c0,6.6-0.8,12.3-2.2,15.3c-3.1,7.3-12.9,17.1-21,21
			C212.6,180.3,190.5,183.2,170.4,181z"/>
	</g>
	<rect x="3.6" y="189.9" class="st3" width="42.1" height="6.3"/>
</g>
</svg>
