<?xml version="1.0" encoding="utf-8"?>
<!-- Generator: Adobe Illustrator 20.1.0, SVG Export Plug-In . SVG Version: 6.00 Build 0)  -->
<svg version="1.1" id="Layer_1" xmlns="http://www.w3.org/2000/svg" xmlns:xlink="http://www.w3.org/1999/xlink" x="0px" y="0px"
	 viewBox="0 0 260 228" style="enable-background:new 0 0 260 228;" xml:space="preserve">
<style type="text/css">
	.st0{fill:#163EF6;}
	.st1{fill:#163EF5;}
	.st2{fill:#DF2041;}
</style>
<g id="layer2">
	<path class="st0" d="M0,114V0h130h130v114v114H130H0V114z M192.8,164.9c19.1-4.9,30.5-16.8,31.9-33.7c0.9-11.3-3.2-22-11-28.9
		c-8.5-7.5-18.6-11.2-36.9-13.8c-12.7-1.8-15.8-3.2-15.8-7.4c0-2.1,0.7-3.1,2.7-4c7.5-3.4,20.8-2.1,30.2,3c3,1.6,5.8,2.9,6.2,2.9
		c0.5,0,4.9-5.2,9.9-11.6l9.1-11.7l-4.8-3.4c-6.6-4.7-14-8-22-9.9c-8.3-2-26.5-2.2-34.8-0.5c-7.1,1.5-18.7,7-23.3,11l-3.3,2.8
		l5.9,5.9c10,10.1,14.5,22.9,14.1,40.8l-0.2,10.1l5.4,1.2c3,0.7,9.4,1.7,14.4,2.3c4.9,0.6,10.9,2,13.3,3c3.7,1.8,3.8,2.4,4,5.1
		c-0.2,2.4-1.1,3.6-3.8,5c-6.7,3.7-24.5,1.8-34-3.5c-2.4-1.4-2.5-1.3-6.2,5.4c-2.1,3.8-6.1,8.8-9.5,13c-2.7,3.1-4.7,6.3-4.7,6.8
		c0.5,0.3,3.1,2.1,5.6,3.9c10,7,21.9,9.6,40.3,8.6C180.9,167,188.7,166,192.8,164.9z M100.5,162.5c21-4.4,36.6-19.6,42-41
		c2-7.8,2-25.3,0-33c-5.4-20.7-19.1-34.2-40.3-39.6C95.6,47.2,91,47,63.3,47H32v58.5V164h30.8C85.9,164,95.2,163.6,100.5,162.5z"/>
	<path class="st0" d="M158.7,162c-7.5-0.9-18.5-4.8-20.7-7.5c-0.8-0.9,0.1-2.6,2.9-6c2.2-2.7,5-6.8,6.3-9.2c1.6-3.1,2.7-4.1,3.8-3.7
		c6.7,2.9,10.8,3.8,19.3,4.2c15.3,0.7,22.7-3.2,22.7-12c0-4.8-3.7-8.8-9.7-10.6c-2.8-0.8-23.8-4.1-27-4.2c-0.2,0-0.3-4.2-0.3-9.3
		c0-15.7-5.2-31.2-13.4-40.1c-3.4-3.6-3.5-4-1.9-5.2c7.1-5.4,19.8-8.7,32.8-8.7c12.8,0,20,1.5,30.3,6.4l8.3,4l-3.1,4.2
		c-1.7,2.3-4.5,6-6.4,8.1l-3.3,4l-5.2-2.3c-11.3-4.8-27.5-5.1-34.5-0.6c-3.8,2.5-5.1,7.6-3.1,11.9c2.2,4.6,6.1,6.3,19.1,8.1
		c23.8,3.3,35.2,9.2,41.1,21.3c2.4,4.8,2.8,6.9,2.7,13.7c0,5.1-0.6,9.4-1.7,11.7c-2.4,5.6-9.9,13.1-16.1,16.1
		C191.1,161.5,174.1,163.7,158.7,162z"/>
	<path class="st1" d="M37,105.5V52h28.3c25,0,29.3,0.2,36.1,2c24.2,6.2,37.6,24.2,37.6,50.6c0,17.5-5.2,30.7-16,40.7
		c-12.7,11.8-20.7,13.7-58.2,13.7H37V105.5z M96.6,134.6c6.2-2.9,11.8-9.2,14.1-16c2.1-6.1,2.3-20.1,0.5-26.3
		c-1.9-6.5-7-12.4-13.6-15.8c-5.5-2.8-6.7-3-19.7-3.3L64,72.8v32.1V137h13.8C90.1,137,92,136.7,96.6,134.6z"/>
	<path class="st0" d="M69,105.1V78h8.3c15.9,0.1,23.1,3.4,27.5,12.8c3.6,9.6,3.5,19.2-0.3,28.8c-2.1,4.1-4.3,6.8-7.3,8.9
		c-7,4.9-19.7,4.3-28.2,3.7V105.1z"/>
	<rect x="32" y="167.7" class="st2" width="32" height="5"/>
</g>
</svg>
